<svg id="Layer_1" data-name="Layer 1" xmlns="http://www.w3.org/2000/svg" viewBox="0 0 496.73 151.08"><defs><style>.cls-1{fill:#ffcb05;}.cls-2{fill:#a7be39;}.cls-3{fill:#4aa1ae;}.cls-4{fill:#808285;}</style></defs><title>logo</title><path class="cls-1" d="M75.86.22C29,.82.38,33.09.38,74.79c0,42.92,30.69,77,72.68,76,22.33-.5,47.92-11.5,60.75-31.59a110.67,110.67,0,0,1-5.3-11.87c-2.33-6.54-4.16-13.57-4.16-13.57-9.6,22.53-29.29,32.93-49.44,32.05C48.26,124.67,27.17,104,27.17,76.93c0-27.7,22-50.23,47.86-50.53,26.49-.31,37.48,13.86,46.1,26.55a16.78,16.78,0,0,1,2.4,5.18c4.42-14.2,5.55-16,12.78-26.59C122.32,11.72,98.79-.07,75.86.22Z" transform="translate(-0.38 -0.13)"/><path class="cls-2" d="M216.39,125.57a91.77,91.77,0,0,1-12.77,0c-21.89-.34-43.31-13-48.23-36.84a76.13,76.13,0,0,1-2.24-16.92,69.29,69.29,0,0,0-12.73-38.36c-7.91,10.33-13.08,23.45-13.72,39.3.63,17.85,4.59,31.74,10.62,42.51a75.45,75.45,0,0,0,30,27.74,94.35,94.35,0,0,0,29.53,8.09c1,0,1.91.07,2.86.07h23.74c1.13-.13,1.73-.23,1.73-.23l.09-2.43v-22.9Z" transform="translate(-0.38 -0.13)"/><path class="cls-3" d="M204.5.37C183,.37,157.42,12.13,143,30.93c.08.14.18.11.25.25,1.14,1.35,8.93,10.47,12.62,27,8.21-21.33,30.63-32.25,53.13-31.33l16-.62L225,.37Z" transform="translate(-0.38 -0.13)"/><path class="cls-4" d="M286.48,66.29V40.77c0-8.51-7.19-12.86-14.74-12.86-9.17,0-14.93,7.28-14.93,15.88,0,8.41,6.14,15.5,14.84,15.5,4.72,0,8.6-2.65,11.43-6.23v9.83c-3.31,2.46-6.52,4.35-12.29,4.35-13,0-22.3-10.77-22.3-24.1,0-13,8.88-23.16,23.44-23.16,14,0,22.87,8.51,22.87,21.55V66.29Z" transform="translate(-0.38 -0.13)"/><path class="cls-4" d="M300.47,66.29V39.82c0-11.91,8.32-19.84,19.37-19.84s19.38,7.94,19.38,19.84V66.29h-8.32V39.82c0-7-5.1-11.91-11.05-11.91s-11.05,4.91-11.05,11.91V66.29Z" transform="translate(-0.38 -0.13)"/><path class="cls-4" d="M346,66.29V.13h8.31V37.75h3.5c3.5,0,5.76-1.32,7-3.4l7.85-13.42h9.44l-6,10.21c-1.8,3.12-4.53,7.65-7.09,8.31v.19c6.71,1.33,10.4,5.3,10.4,13.32V66.29h-8.32V53.91c0-5.68-3-8.23-7.37-8.23h-9.45V66.29Z" transform="translate(-0.38 -0.13)"/><path class="cls-4" d="M423.7,20.93V47.39c0,11.9-8.31,19.84-19.38,19.84S385,59.29,385,47.39V20.93h8.31V47.39c0,7,5.1,11.9,11.05,11.9s11.06-4.92,11.06-11.9V20.93Z" transform="translate(-0.38 -0.13)"/><path class="cls-4" d="M429.75,20.93h7.94v5.2h.19c2.83-4.45,6.71-6.14,12.29-6.14h1.89v7.94h-1.23c-8,0-12.76,4.91-12.76,17.2V66.29h-8.32Z" transform="translate(-0.38 -0.13)"/><path class="cls-4" d="M279.28,93.38h-6.42c-7.84,0-15.59,5.1-15.59,14.74s7.75,14.75,15.59,14.75h6.42v7.93h-7.93c-10.59,0-22.77-8.12-22.77-22.68s12.19-22.67,22.77-22.67h7.93Z" transform="translate(-0.38 -0.13)"/><path class="cls-4" d="M319.35,130.8V105.29c0-8.51-7.18-12.85-14.74-12.85-9.17,0-14.93,7.27-14.93,15.88,0,8.4,6.14,15.5,14.84,15.5,4.73,0,8.6-2.65,11.43-6.23v9.82c-3.31,2.46-6.52,4.35-12.29,4.35-13,0-22.29-10.77-22.29-24.1,0-12.94,8.88-23.16,23.44-23.16,14,0,22.86,8.5,22.86,21.55V130.8Z" transform="translate(-0.38 -0.13)"/><path class="cls-4" d="M332.86,151.21V109.44c0-14.93,9.55-24.95,22.88-24.95,14.74,0,23.43,11.34,23.43,24.76,0,12.66-10.2,22.49-21.83,22.49a25.43,25.43,0,0,1-12.85-3.22v-8.69c3,2.08,7.65,4,11.43,4,9,0,14.93-6.23,14.93-15.59s-6.23-15.78-15.12-15.78c-7.94,0-14.56,6-14.56,18.51v40.26Z" transform="translate(-0.38 -0.13)"/><path class="cls-4" d="M388.25,130.8V85.45h8.31V130.8Z" transform="translate(-0.38 -0.13)"/><path class="cls-4" d="M433.32,93.38H417.07V117.2c0,4.25,2,5.67,6.24,5.67h10v7.93H422.17c-8.51,0-13.42-5.66-13.42-14.65V74.1h8.32V85.45h16.25Z" transform="translate(-0.38 -0.13)"/><path class="cls-4" d="M472.73,130.8V105.29c0-8.51-7.19-12.85-14.74-12.85-9.17,0-14.93,7.27-14.93,15.88,0,8.4,6.14,15.5,14.83,15.5,4.72,0,8.6-2.65,11.44-6.23v9.82c-3.31,2.46-6.52,4.35-12.29,4.35-13,0-22.3-10.77-22.3-24.1,0-12.94,8.89-23.16,23.44-23.16C472.16,84.5,481,93,481,106V130.8Z" transform="translate(-0.38 -0.13)"/><path class="cls-4" d="M488.8,130.8V64.65h8.31V130.8Z" transform="translate(-0.38 -0.13)"/></svg>