<svg width="600px" height="102px" viewBox="111 143 600 102" version="1.1" xmlns="http://www.w3.org/2000/svg" xmlns:xlink="http://www.w3.org/1999/xlink">
    <!-- Generator: Sketch 41.2 (35397) - http://www.bohemiancoding.com/sketch -->
    <desc>Created with Sketch.</desc>
    <defs>
        <polygon id="path-1" points="101.122924 101.94 0 101.94 0 0.878 101.122924 0.878 101.122924 101.94"></polygon>
    </defs>
    <g id="DO_Logo_horizontal_blue" stroke="none" stroke-width="1" fill="none" fill-rule="evenodd" transform="translate(111.000000, 143.000000)">
        <g id="Group-3">
            <mask id="mask-2" fill="white">
                <use xlink:href="#path-1"></use>
            </mask>
            <g id="Clip-2"></g>
            <path d="M50.561,102 L50.561,82.418 C71.342,82.418 87.41,61.85 79.477,40.004 C76.538,31.912 70.083,25.458 61.991,22.521 C40.147,14.595 19.585,30.658 19.582,51.435 C19.582,51.435 19.58,51.44 19.577,51.44 L0,51.44 C0,18.333 31.984,-7.445 66.676,3.385 C81.836,8.118 93.883,20.165 98.616,35.325 C109.445,70.017 83.668,102 50.561,102" id="Fill-1" fill="#456DA7" mask="url(#mask-2)"></path>
        </g>
        <path d="M50.606,82.468 L31.082,82.468 L31.082,62.951 C31.082,62.951 31.084,62.947 31.086,62.947 L50.603,62.947 C50.605,62.947 50.606,62.949 50.606,62.949 L50.606,82.468" id="Fill-4" fill="#456DA7"></path>
        <polyline id="Fill-5" fill="#456DA7" points="31.079 97.469 16.083 97.469 16.079 97.465 16.079 82.468 31.082 82.468 31.082 97.465 31.079 97.469"></polyline>
        <path d="M16.09,82.468 L3.519,82.468 C3.514,82.468 3.51,82.464 3.51,82.464 L3.51,69.899 C3.51,69.899 3.514,69.89 3.519,69.89 L16.081,69.89 C16.086,69.89 16.09,69.894 16.09,69.894 L16.09,82.468" id="Fill-6" fill="#456DA7"></path>
        <path d="M150.979,33.891 L156.731,33.891 C163.131,33.891 168.4,35.15 172.394,37.636 C176.829,40.31 179.079,45.398 179.079,52.757 C179.079,60.338 176.824,65.655 172.379,68.564 L172.376,68.564 C168.549,71.095 163.313,72.379 156.811,72.379 L150.979,72.379 L150.979,33.891 Z M180.016,30.115 C174.226,26.098 167.021,24.062 158.602,24.062 L140.275,24.062 L140.275,82.208 L158.602,82.208 C167,82.208 174.208,80.058 180.023,75.822 C183.187,73.577 185.673,70.439 187.413,66.498 C189.144,62.578 190.022,57.955 190.022,52.757 C190.022,47.62 189.144,43.056 187.412,39.191 C185.672,35.308 183.184,32.255 180.016,30.115 L180.016,30.115 Z" id="Fill-7" fill="#456DA7"></path>
        <path d="M202.78,23.346 C201.018,23.346 199.5,23.971 198.278,25.194 C197.041,26.372 196.413,27.866 196.413,29.632 C196.413,31.394 197.038,32.911 198.269,34.143 C199.5,35.374 201.018,36 202.78,36 C204.539,36 206.057,35.374 207.29,34.143 C208.523,32.909 209.147,31.392 209.147,29.632 C209.147,27.868 208.519,26.375 207.29,25.203 C206.057,23.971 204.539,23.346 202.78,23.346" id="Fill-8" fill="#456DA7"></path>
        <polygon id="Fill-9" fill="#456DA7" points="197.528 82.208 207.832 82.208 207.832 41.255 197.528 41.255"></polygon>
        <path d="M242.554,68.863 C240.753,70.908 238.44,71.9 235.485,71.9 C232.53,71.9 230.23,70.908 228.456,68.865 C226.689,66.833 225.792,64.138 225.792,60.855 C225.792,57.521 226.689,54.792 228.457,52.745 C230.208,50.719 232.572,49.691 235.485,49.691 C238.438,49.691 240.751,50.69 242.553,52.749 C244.347,54.796 245.257,57.523 245.257,60.855 C245.257,64.136 244.347,66.83 242.554,68.863 Z M245.257,44.676 C242.15,41.912 238.679,40.299 234.927,40.299 C229.239,40.299 224.511,42.268 220.877,46.145 C217.195,49.99 215.328,54.94 215.328,60.855 C215.328,66.637 217.166,71.57 220.798,75.525 C224.46,79.352 229.213,81.292 234.927,81.292 C238.9,81.292 242.316,80.186 245.098,78.001 L245.098,78.944 C245.098,82.342 244.188,84.985 242.394,86.801 C240.602,88.614 238.117,89.532 235.008,89.532 C230.251,89.532 227.27,87.663 223.64,82.757 L216.623,89.5 L216.812,89.765 C218.328,91.893 220.649,93.975 223.714,95.953 C226.779,97.924 230.632,98.924 235.167,98.924 C241.284,98.924 246.234,97.038 249.878,93.32 C253.543,89.582 255.402,84.576 255.402,78.447 L255.402,41.255 L245.257,41.255 L245.257,44.676 L245.257,44.676 Z" id="Fill-10" fill="#456DA7"></path>
        <polygon id="Fill-11" fill="#456DA7" points="264.221 82.208 274.526 82.208 274.526 41.255 264.221 41.255"></polygon>
        <path d="M269.473,23.346 C267.711,23.346 266.194,23.971 264.971,25.194 C263.734,26.372 263.107,27.866 263.107,29.632 C263.107,31.394 263.731,32.911 264.963,34.143 C266.194,35.374 267.711,36 269.473,36 C271.233,36 272.751,35.374 273.983,34.143 C275.216,32.909 275.84,31.392 275.84,29.632 C275.84,27.868 275.213,26.375 273.983,25.203 C272.751,23.971 271.233,23.346 269.473,23.346" id="Fill-12" fill="#456DA7"></path>
        <path d="M297.113,30.189 L286.968,30.189 L286.968,41.255 L281.077,41.255 L281.077,50.647 L286.968,50.647 L286.968,67.658 C286.968,72.981 288.031,76.79 290.13,78.977 C292.234,81.174 295.97,82.288 301.234,82.288 C302.908,82.288 304.593,82.233 306.241,82.125 L306.705,82.094 L306.705,72.709 L303.171,72.894 C300.718,72.894 299.08,72.463 298.301,71.615 C297.513,70.753 297.113,68.929 297.113,66.197 L297.113,50.647 L306.705,50.647 L306.705,41.255 L297.113,41.255 L297.113,30.189" id="Fill-13" fill="#456DA7"></path>
        <polygon id="Fill-14" fill="#456DA7" points="355.024 82.208 365.33 82.208 365.33 24.062 355.024 24.062"></polygon>
        <path d="M469.44,67.564 C467.596,69.63 465.71,71.421 464.258,72.352 L464.258,72.354 C462.833,73.268 461.035,73.732 458.914,73.732 C455.878,73.732 453.436,72.626 451.447,70.348 C449.469,68.083 448.466,65.172 448.466,61.691 C448.466,58.21 449.456,55.303 451.409,53.054 C453.371,50.791 455.8,49.691 458.834,49.691 C462.153,49.691 465.653,51.755 468.652,55.3 L475.463,48.769 C471.022,42.989 465.357,40.299 458.596,40.299 C452.938,40.299 448.033,42.361 444.019,46.423 C440.026,50.457 438.001,55.594 438.001,61.691 C438.001,67.788 440.024,72.938 444.013,76.998 C448.006,81.063 452.913,83.124 458.596,83.124 C466.058,83.124 472.079,79.903 476.139,74.002 L469.44,67.564" id="Fill-15" fill="#456DA7"></path>
        <path d="M489.211,56.618 C489.707,54.66 490.61,53.028 491.902,51.761 C493.299,50.387 495.116,49.691 497.305,49.691 C499.803,49.691 501.736,50.401 503.052,51.806 C504.271,53.106 504.959,54.724 505.103,56.618 L489.211,56.618 Z M511.735,46.976 C510.273,44.94 508.283,43.301 505.817,42.103 C503.359,40.906 500.494,40.299 497.302,40.299 C491.55,40.299 486.843,42.422 483.309,46.611 C479.878,50.768 478.14,55.935 478.14,61.969 C478.14,68.176 480.048,73.313 483.81,77.237 C487.552,81.143 492.56,83.124 498.695,83.124 C505.644,83.124 511.347,80.314 515.644,74.77 L515.876,74.472 L509.153,68.011 C508.529,68.763 507.647,69.615 506.841,70.375 C505.823,71.335 504.867,72.078 503.845,72.587 C502.305,73.354 500.577,73.732 498.645,73.732 C495.789,73.732 493.425,72.892 491.617,71.235 C489.926,69.686 488.938,67.596 488.676,65.015 L515.978,65.015 L516.07,61.254 C516.07,58.592 515.708,56.027 514.993,53.63 C514.278,51.228 513.181,48.99 511.735,46.976 L511.735,46.976 Z" id="Fill-16" fill="#456DA7"></path>
        <path d="M533.013,66.558 C534.182,65.743 535.833,65.333 537.922,65.333 C540.403,65.333 543.034,65.83 545.745,66.814 L545.745,70.831 C543.505,72.913 540.514,73.969 536.85,73.969 C535.066,73.969 533.679,73.573 532.726,72.789 C531.79,72.022 531.336,71.046 531.336,69.81 C531.336,68.405 531.884,67.34 533.013,66.558 Z M551.31,44.319 L551.309,44.319 C548.186,41.653 543.869,40.299 538.479,40.299 C535.05,40.299 531.844,41.053 528.943,42.523 C526.26,43.884 523.625,46.137 521.951,49.087 L522.055,49.213 L528.654,55.53 C531.372,51.196 534.394,49.691 538.401,49.691 C540.554,49.691 542.342,50.269 543.715,51.408 C545.081,52.539 545.745,53.977 545.745,55.801 L545.745,57.789 C543.19,57.012 540.642,56.618 538.162,56.618 C533.034,56.618 528.861,57.825 525.761,60.203 C522.621,62.613 521.03,66.059 521.03,70.447 C521.03,74.295 522.372,77.421 525.028,79.744 C527.706,81.985 531.054,83.124 534.978,83.124 C538.901,83.124 542.572,81.543 545.904,78.836 L545.904,82.208 L556.051,82.208 L556.051,55.881 C556.051,50.896 554.456,47.007 551.31,44.319 L551.31,44.319 Z" id="Fill-17" fill="#456DA7"></path>
        <path d="M595.694,45.121 C592.824,41.923 588.79,40.299 583.704,40.299 C579.616,40.299 576.296,41.473 573.812,43.79 L573.812,41.255 L563.706,41.255 L563.706,82.208 L574.011,82.208 L574.011,59.622 C574.011,56.519 574.75,54.055 576.206,52.297 C577.658,50.543 579.656,49.691 582.311,49.691 C584.645,49.691 586.415,50.453 587.72,52.019 C589.031,53.593 589.695,55.761 589.695,58.468 L589.695,82.208 L600,82.208 L600,58.468 C600,52.796 598.552,48.307 595.694,45.121" id="Fill-18" fill="#456DA7"></path>
        <path d="M323.776,66.558 C324.945,65.743 326.597,65.333 328.686,65.333 C331.167,65.333 333.797,65.83 336.509,66.814 L336.509,70.831 C334.269,72.913 331.277,73.969 327.613,73.969 C325.829,73.969 324.443,73.573 323.49,72.789 C322.554,72.022 322.099,71.046 322.099,69.81 C322.099,68.405 322.648,67.34 323.776,66.558 Z M342.073,44.319 L342.072,44.319 C338.949,41.653 334.632,40.299 329.243,40.299 C325.814,40.299 322.608,41.053 319.707,42.523 C317.023,43.884 314.388,46.137 312.715,49.087 L312.818,49.213 L319.417,55.53 C322.135,51.196 325.158,49.691 329.164,49.691 C331.317,49.691 333.105,50.269 334.478,51.408 C335.844,52.539 336.509,53.977 336.509,55.801 L336.509,57.789 C333.953,57.012 331.405,56.618 328.925,56.618 C323.797,56.618 319.624,57.825 316.524,60.203 C313.385,62.613 311.793,66.059 311.793,70.447 C311.793,74.295 313.135,77.421 315.792,79.744 C318.47,81.985 321.817,83.124 325.742,83.124 C329.665,83.124 333.335,81.543 336.667,78.836 L336.667,82.208 L346.814,82.208 L346.814,55.881 C346.814,50.896 345.22,47.007 342.073,44.319 L342.073,44.319 Z" id="Fill-19" fill="#456DA7"></path>
        <path d="M402.72,33.698 C392.017,33.698 383.309,42.405 383.309,53.109 C383.309,63.813 392.017,72.52 402.72,72.52 C413.423,72.52 422.131,63.813 422.131,53.109 C422.131,42.405 413.423,33.698 402.72,33.698 Z M402.72,83.083 C386.191,83.083 372.745,69.637 372.745,53.109 C372.745,36.58 386.191,23.134 402.72,23.134 C419.248,23.134 432.694,36.58 432.694,53.109 C432.694,69.637 419.248,83.083 402.72,83.083 L402.72,83.083 Z" id="Fill-20" fill="#456DA7"></path>
    </g>
</svg>