<?xml version="1.0" standalone="no"?>
<!DOCTYPE svg PUBLIC "-//W3C//DTD SVG 20010904//EN"
 "http://www.w3.org/TR/2001/REC-SVG-20010904/DTD/svg10.dtd">
<svg version="1.0" xmlns="http://www.w3.org/2000/svg"
 width="355.000000pt" height="355.000000pt" viewBox="0 0 355.000000 355.000000"
 preserveAspectRatio="xMidYMid meet">
<metadata>
Created by potrace 1.11, written by Peter Selinger 2001-2013
</metadata>
<g transform="translate(0.000000,355.000000) scale(0.100000,-0.100000)"
fill="#000000" stroke="none">
<path d="M1270 3333 c-100 -34 -169 -93 -216 -184 -25 -47 -28 -65 -29 -144 0
-78 4 -97 28 -146 73 -151 227 -222 396 -185 85 19 174 94 218 184 25 50 28
68 28 147 -1 83 -4 95 -34 153 -65 120 -154 175 -291 178 -47 1 -92 0 -100 -3z"/>
<path d="M2121 2520 c-34 -10 -61 -16 -61 -14 0 2 -8 -3 -17 -11 -87 -74 -113
-101 -128 -130 -9 -19 -19 -35 -23 -35 -4 0 -8 -8 -9 -17 -1 -10 -5 -51 -9
-90 -11 -114 22 -203 105 -281 94 -90 256 -113 381 -55 50 23 146 124 160 170
7 21 16 43 20 48 3 6 6 46 5 90 -1 58 -7 93 -23 128 -71 158 -240 241 -401
197z"/>
<path d="M392 2512 c-95 -34 -179 -121 -207 -214 -75 -253 131 -484 390 -437
65 12 100 29 153 75 55 47 89 100 106 167 20 77 12 189 -17 225 -5 7 -7 15 -4
18 14 15 -105 130 -162 156 -65 30 -188 35 -259 10z"/>
<path d="M1242 2511 c-142 -53 -224 -180 -218 -334 3 -71 37 -177 57 -177 5 0
9 -4 9 -10 0 -18 74 -80 125 -105 103 -48 245 -37 333 26 101 73 144 151 148
273 2 71 -1 90 -24 141 -56 127 -159 196 -297 202 -61 3 -92 -1 -133 -16z"/>
<path d="M2923 2516 c-86 -28 -159 -92 -205 -178 -19 -36 -22 -59 -23 -143 0
-91 3 -105 28 -154 124 -234 451 -251 592 -31 108 170 44 393 -140 488 -61 31
-185 40 -252 18z"/>
<path d="M1258 1690 c-94 -29 -160 -86 -205 -178 -25 -50 -28 -68 -27 -147 1
-108 23 -165 95 -237 61 -61 126 -90 215 -96 210 -14 368 142 360 352 -9 223
-223 373 -438 306z"/>
<path d="M2133 1699 c-144 -26 -258 -165 -262 -322 -3 -104 25 -174 98 -248
206 -206 554 -77 576 214 17 226 -182 397 -412 356z"/>
<path d="M1299 900 c-62 -11 -146 -59 -190 -108 -66 -74 -83 -122 -83 -227 0
-104 19 -157 80 -225 162 -179 450 -140 560 77 26 52 29 68 29 148 -1 79 -4
97 -30 148 -68 137 -217 212 -366 187z"/>
</g>
</svg>
