<?xml version="1.0" standalone="no"?>
<!DOCTYPE svg PUBLIC "-//W3C//DTD SVG 20010904//EN"
 "http://www.w3.org/TR/2001/REC-SVG-20010904/DTD/svg10.dtd">
<svg version="1.0" xmlns="http://www.w3.org/2000/svg"
 width="700.000000pt" height="700.000000pt" viewBox="0 0 700.000000 700.000000"
 preserveAspectRatio="xMidYMid meet">
<metadata>
Created by potrace 1.11, written by Peter Selinger 2001-2013
</metadata>
<g transform="translate(0.000000,700.000000) scale(0.100000,-0.100000)"
fill="#000000" stroke="none">
<path d="M2470 6559 c-209 -73 -408 -294 -439 -486 -5 -32 -8 -116 -6 -188 2
-102 7 -141 23 -180 129 -321 410 -488 747 -441 226 31 439 213 521 444 21 61
23 81 21 227 -3 183 -14 223 -100 352 -139 209 -284 282 -568 288 -122 2 -154
0 -199 -16z"/>
<path d="M940 4984 c-130 -20 -170 -30 -221 -55 -142 -69 -265 -193 -327 -329
-69 -152 -74 -362 -13 -518 75 -190 233 -335 436 -398 93 -29 306 -26 399 6
83 28 124 50 191 104 132 109 189 193 236 346 18 59 22 98 22 190 0 118 -10
172 -44 248 -11 23 -17 47 -14 52 12 19 -143 179 -262 270 -34 27 -138 64
-208 75 -45 7 -172 13 -195 9z"/>
<path d="M2595 4982 c-135 -13 -275 -79 -380 -179 -135 -129 -206 -323 -191
-522 6 -93 7 -97 30 -184 18 -66 47 -126 77 -159 106 -119 156 -161 244 -207
164 -85 403 -93 572 -19 152 66 290 204 348 346 45 110 62 290 40 408 -21 111
-108 263 -199 347 -79 73 -202 137 -288 151 -21 3 -54 9 -73 12 -43 7 -139 10
-180 6z"/>
<path d="M4142 4959 c-99 -26 -106 -30 -179 -96 -117 -104 -163 -154 -189
-205 -13 -26 -28 -50 -34 -53 -44 -27 -61 -341 -26 -470 48 -177 180 -332 348
-409 214 -99 493 -82 657 38 56 42 170 161 210 221 15 22 40 72 56 110 28 65
30 78 29 200 0 144 -4 177 -29 250 -63 182 -226 342 -420 411 -70 24 -96 28
-200 29 -102 1 -136 -3 -223 -26z"/>
<path d="M5877 4983 c-2 -1 -25 -5 -52 -8 -99 -13 -266 -110 -353 -204 -49
-54 -123 -176 -138 -229 -32 -111 -24 -377 15 -475 14 -35 91 -152 123 -188
75 -81 232 -178 311 -193 15 -2 30 -7 34 -9 15 -9 109 -19 172 -18 248 4 486
159 589 383 60 131 75 307 38 448 -62 230 -266 434 -477 475 -70 14 -254 27
-262 18z"/>
<path d="M2600 3357 c-124 -16 -258 -73 -357 -153 -89 -73 -193 -246 -211
-352 -5 -29 -8 -105 -7 -170 5 -210 48 -315 185 -452 130 -130 268 -190 444
-193 107 -2 187 8 259 34 228 81 387 277 422 519 17 114 8 221 -26 324 -68
210 -259 385 -471 430 -93 20 -156 24 -238 13z"/>
<path d="M4197 3348 c-159 -28 -342 -170 -424 -330 -63 -122 -78 -188 -77
-338 0 -119 3 -143 27 -207 71 -199 260 -369 468 -423 86 -22 227 -25 304 -5
33 8 67 17 76 19 8 2 37 15 65 28 235 115 371 324 380 583 6 191 -53 349 -180
480 -161 164 -398 236 -639 193z"/>
<path d="M2648 1785 c-2 -2 -23 -4 -48 -6 -81 -5 -208 -58 -305 -127 -67 -47
-87 -67 -144 -137 -89 -110 -119 -195 -125 -350 -8 -241 38 -375 176 -513 124
-125 269 -190 440 -200 275 -15 508 120 641 369 46 87 57 145 57 292 -1 128
-9 186 -38 252 -27 64 -105 176 -158 228 -93 91 -249 167 -375 181 -93 11
-118 13 -121 11z"/>
</g>
</svg>
